<mxfile host="app.diagrams.net" modified="2024-01-01T00:00:00.000Z" agent="5.0" etag="xxx" version="22.1.16" type="device">
  <diagram name="ThinkGenius2-Testing-Framework" id="testing-framework-diagram">
    <mxGraphModel dx="1422" dy="794" grid="1" gridSize="10" guides="1" tooltips="1" connect="1" arrows="1" fold="1" page="1" pageScale="1" pageWidth="1400" pageHeight="1000" math="0" shadow="0">
      <root>
        <mxCell id="0" />
        <mxCell id="1" parent="0" />
        
        <!-- 标题 -->
        <mxCell id="title" value="ThinkGenius2 完整测试框架图" style="text;html=1;strokeColor=none;fillColor=none;align=center;verticalAlign=middle;whiteSpace=wrap;rounded=0;fontSize=28;fontStyle=1;fontColor=#1a237e;" vertex="1" parent="1">
          <mxGeometry x="400" y="20" width="600" height="40" as="geometry" />
        </mxCell>
        
        <!-- 测试金字塔 -->
        <mxCell id="pyramid-title" value="测试金字塔 (Testing Pyramid)" style="text;html=1;strokeColor=none;fillColor=none;align=center;verticalAlign=middle;whiteSpace=wrap;rounded=0;fontSize=20;fontStyle=1;fontColor=#e91e63;" vertex="1" parent="1">
          <mxGeometry x="50" y="80" width="300" height="30" as="geometry" />
        </mxCell>
        
        <!-- E2E测试 -->
        <mxCell id="e2e-tests" value="E2E测试 (End-to-End)&#xa;&#xa;• Cypress&#xa;• Playwright&#xa;• Selenium&#xa;• 用户场景测试&#xa;• 跨浏览器测试&#xa;&#xa;数量: 少量" style="rounded=1;whiteSpace=wrap;html=1;fillColor=#ff5722;strokeColor=#d84315;fontColor=#ffffff;fontSize=12;fontStyle=1;gradientColor=#d84315;gradientDirection=north;" vertex="1" parent="1">
          <mxGeometry x="50" y="120" width="300" height="120" as="geometry" />
        </mxCell>
        
        <!-- 集成测试 -->
        <mxCell id="integration-tests" value="集成测试 (Integration)&#xa;&#xa;• Spring Boot Test&#xa;• @SpringBootTest&#xa;• @WebMvcTest&#xa;• @DataMongoTest&#xa;• API集成测试&#xa;&#xa;数量: 中等" style="rounded=1;whiteSpace=wrap;html=1;fillColor=#ff9800;strokeColor=#f57c00;fontColor=#ffffff;fontSize=12;fontStyle=1;gradientColor=#f57c00;gradientDirection=north;" vertex="1" parent="1">
          <mxGeometry x="100" y="260" width="300" height="120" as="geometry" />
        </mxCell>
        
        <!-- 单元测试 -->
        <mxCell id="unit-tests" value="单元测试 (Unit)&#xa;&#xa;• JUnit 5&#xa;• Mockito&#xa;• AssertJ&#xa;• Jest/Vitest&#xa;• Vue Test Utils&#xa;&#xa;数量: 大量" style="rounded=1;whiteSpace=wrap;html=1;fillColor=#4caf50;strokeColor=#388e3c;fontColor=#ffffff;fontSize=12;fontStyle=1;gradientColor=#388e3c;gradientDirection=north;" vertex="1" parent="1">
          <mxGeometry x="150" y="400" width="300" height="120" as="geometry" />
        </mxCell>
        
        <!-- 测试类型分类 -->
        <mxCell id="test-types-title" value="测试类型分类" style="text;html=1;strokeColor=none;fillColor=none;align=center;verticalAlign=middle;whiteSpace=wrap;rounded=0;fontSize=20;fontStyle=1;fontColor=#2196f3;" vertex="1" parent="1">
          <mxGeometry x="500" y="80" width="200" height="30" as="geometry" />
        </mxCell>
        
        <!-- 黑盒测试 -->
        <mxCell id="blackbox-tests" value="黑盒测试 (Black Box)&#xa;&#xa;• 功能测试&#xa;• 用户界面测试&#xa;• API接口测试&#xa;• 性能测试&#xa;• 安全测试&#xa;• 兼容性测试" style="rounded=1;whiteSpace=wrap;html=1;fillColor=#9c27b0;strokeColor=#7b1fa2;fontColor=#ffffff;fontSize=12;fontStyle=1;gradientColor=#7b1fa2;gradientDirection=north;" vertex="1" parent="1">
          <mxGeometry x="450" y="120" width="300" height="120" as="geometry" />
        </mxCell>
        
        <!-- 白盒测试 -->
        <mxCell id="whitebox-tests" value="白盒测试 (White Box)&#xa;&#xa;• 单元测试&#xa;• 集成测试&#xa;• 代码覆盖率测试&#xa;• 静态代码分析&#xa;• 代码审查&#xa;• 调试测试" style="rounded=1;whiteSpace=wrap;html=1;fillColor=#00bcd4;strokeColor=#0097a7;fontColor=#ffffff;fontSize=12;fontStyle=1;gradientColor=#0097a7;gradientDirection=north;" vertex="1" parent="1">
          <mxGeometry x="800" y="120" width="300" height="120" as="geometry" />
        </mxCell>
        
        <!-- 灰盒测试 -->
        <mxCell id="graybox-tests" value="灰盒测试 (Gray Box)&#xa;&#xa;• 组件测试&#xa;• 模块测试&#xa;• 子系统测试&#xa;• 数据库测试&#xa;• 中间件测试&#xa;• 配置测试" style="rounded=1;whiteSpace=wrap;html=1;fillColor=#795548;strokeColor=#5d4037;fontColor=#ffffff;fontSize=12;fontStyle=1;gradientColor=#5d4037;gradientDirection=north;" vertex="1" parent="1">
          <mxGeometry x="1150" y="120" width="300" height="120" as="geometry" />
        </mxCell>
        
        <!-- 前端测试 -->
        <mxCell id="frontend-tests-title" value="前端测试 (Frontend Testing)" style="text;html=1;strokeColor=none;fillColor=none;align=center;verticalAlign=middle;whiteSpace=wrap;rounded=0;fontSize=18;fontStyle=1;fontColor=#4361ee;" vertex="1" parent="1">
          <mxGeometry x="450" y="280" width="300" height="30" as="geometry" />
        </mxCell>
        
        <!-- 前端单元测试 -->
        <mxCell id="frontend-unit" value="单元测试&#xa;&#xa;• Jest/Vitest&#xa;• Vue Test Utils&#xa;• 组件测试&#xa;• 工具函数测试&#xa;• API Mock测试" style="rounded=1;whiteSpace=wrap;html=1;fillColor=#4361ee;strokeColor=#3a0ca3;fontColor=#ffffff;fontSize=11;fontStyle=1;gradientColor=#3a0ca3;gradientDirection=north;" vertex="1" parent="1">
          <mxGeometry x="450" y="320" width="200" height="100" as="geometry" />
        </mxCell>
        
        <!-- 前端集成测试 -->
        <mxCell id="frontend-integration" value="集成测试&#xa;&#xa;• Cypress&#xa;• Playwright&#xa;• 页面交互测试&#xa;• 路由测试&#xa;• 状态管理测试" style="rounded=1;whiteSpace=wrap;html=1;fillColor=#4361ee;strokeColor=#3a0ca3;fontColor=#ffffff;fontSize=11;fontStyle=1;gradientColor=#3a0ca3;gradientDirection=north;" vertex="1" parent="1">
          <mxGeometry x="680" y="320" width="200" height="100" as="geometry" />
        </mxCell>
        
        <!-- 前端E2E测试 -->
        <mxCell id="frontend-e2e" value="E2E测试&#xa;&#xa;• 用户场景测试&#xa;• 跨浏览器测试&#xa;• 响应式测试&#xa;• 性能测试&#xa;• 可访问性测试" style="rounded=1;whiteSpace=wrap;html=1;fillColor=#4361ee;strokeColor=#3a0ca3;fontColor=#ffffff;fontSize=11;fontStyle=1;gradientColor=#3a0ca3;gradientDirection=north;" vertex="1" parent="1">
          <mxGeometry x="910" y="320" width="200" height="100" as="geometry" />
        </mxCell>
        
        <!-- 后端测试 -->
        <mxCell id="backend-tests-title" value="后端测试 (Backend Testing)" style="text;html=1;strokeColor=none;fillColor=none;align=center;verticalAlign=middle;whiteSpace=wrap;rounded=0;fontSize=18;fontStyle=1;fontColor=#f72585;" vertex="1" parent="1">
          <mxGeometry x="450" y="460" width="300" height="30" as="geometry" />
        </mxCell>
        
        <!-- 后端单元测试 -->
        <mxCell id="backend-unit" value="单元测试&#xa;&#xa;• JUnit 5&#xa;• Mockito&#xa;• AssertJ&#xa;• 服务层测试&#xa;• 工具类测试" style="rounded=1;whiteSpace=wrap;html=1;fillColor=#f72585;strokeColor=#b5179e;fontColor=#ffffff;fontSize=11;fontStyle=1;gradientColor=#b5179e;gradientDirection=north;" vertex="1" parent="1">
          <mxGeometry x="450" y="500" width="200" height="100" as="geometry" />
        </mxCell>
        
        <!-- 后端集成测试 -->
        <mxCell id="backend-integration" value="集成测试&#xa;&#xa;• @SpringBootTest&#xa;• @WebMvcTest&#xa;• @DataMongoTest&#xa;• 控制器测试&#xa;• 数据库集成测试" style="rounded=1;whiteSpace=wrap;html=1;fillColor=#f72585;strokeColor=#b5179e;fontColor=#ffffff;fontSize=11;fontStyle=1;gradientColor=#b5179e;gradientDirection=north;" vertex="1" parent="1">
          <mxGeometry x="680" y="500" width="200" height="100" as="geometry" />
        </mxCell>
        
        <!-- 后端API测试 -->
        <mxCell id="backend-api" value="API测试&#xa;&#xa;• REST Assured&#xa;• Postman&#xa;• 接口功能测试&#xa;• 参数验证测试&#xa;• 错误处理测试" style="rounded=1;whiteSpace=wrap;html=1;fillColor=#f72585;strokeColor=#b5179e;fontColor=#ffffff;fontSize=11;fontStyle=1;gradientColor=#b5179e;gradientDirection=north;" vertex="1" parent="1">
          <mxGeometry x="910" y="500" width="200" height="100" as="geometry" />
        </mxCell>
        
        <!-- 专项测试 -->
        <mxCell id="specialized-tests-title" value="专项测试 (Specialized Testing)" style="text;html=1;strokeColor=none;fillColor=none;align=center;verticalAlign=middle;whiteSpace=wrap;rounded=0;fontSize=18;fontStyle=1;fontColor=#4cc9f0;" vertex="1" parent="1">
          <mxGeometry x="450" y="640" width="300" height="30" as="geometry" />
        </mxCell>
        
        <!-- 性能测试 -->
        <mxCell id="performance-tests" value="性能测试&#xa;&#xa;• JMeter&#xa;• Gatling&#xa;• 负载测试&#xa;• 压力测试&#xa;• 并发测试" style="rounded=1;whiteSpace=wrap;html=1;fillColor=#4cc9f0;strokeColor=#00b4d8;fontColor=#ffffff;fontSize=11;fontStyle=1;gradientColor=#00b4d8;gradientDirection=north;" vertex="1" parent="1">
          <mxGeometry x="450" y="680" width="200" height="80" as="geometry" />
        </mxCell>
        
        <!-- 安全测试 -->
        <mxCell id="security-tests" value="安全测试&#xa;&#xa;• OWASP ZAP&#xa;• JWT安全测试&#xa;• 输入验证测试&#xa;• 权限控制测试" style="rounded=1;whiteSpace=wrap;html=1;fillColor=#4cc9f0;strokeColor=#00b4d8;fontColor=#ffffff;fontSize=11;fontStyle=1;gradientColor=#00b4d8;gradientDirection=north;" vertex="1" parent="1">
          <mxGeometry x="680" y="680" width="200" height="80" as="geometry" />
        </mxCell>
        
        <!-- 数据库测试 -->
        <mxCell id="database-tests" value="数据库测试&#xa;&#xa;• MongoDB测试&#xa;• 数据完整性测试&#xa;• 查询性能测试&#xa;• 事务测试" style="rounded=1;whiteSpace=wrap;html=1;fillColor=#4cc9f0;strokeColor=#00b4d8;fontColor=#ffffff;fontSize=11;fontStyle=1;gradientColor=#00b4d8;gradientDirection=north;" vertex="1" parent="1">
          <mxGeometry x="910" y="680" width="200" height="80" as="geometry" />
        </mxCell>
        
        <!-- AI服务测试 -->
        <mxCell id="ai-tests" value="AI服务测试&#xa;&#xa;• 百度千帆API测试&#xa;• 关键词生成测试&#xa;• 内容分析测试&#xa;• 错误处理测试" style="rounded=1;whiteSpace=wrap;html=1;fillColor=#4cc9f0;strokeColor=#00b4d8;fontColor=#ffffff;fontSize=11;fontStyle=1;gradientColor=#00b4d8;gradientDirection=north;" vertex="1" parent="1">
          <mxGeometry x="1140" y="680" width="200" height="80" as="geometry" />
        </mxCell>
        
        <!-- 测试工具链 -->
        <mxCell id="tools-title" value="测试工具链 (Testing Tools)" style="text;html=1;strokeColor=none;fillColor=none;align=center;verticalAlign=middle;whiteSpace=wrap;rounded=0;fontSize=18;fontStyle=1;fontColor=#4895ef;" vertex="1" parent="1">
          <mxGeometry x="50" y="580" width="300" height="30" as="geometry" />
        </mxCell>
        
        <!-- 测试框架 -->
        <mxCell id="test-frameworks" value="测试框架&#xa;&#xa;• JUnit 5 (Java)&#xa;• Jest/Vitest (JS)&#xa;• Cypress (E2E)&#xa;• Playwright (E2E)&#xa;• Selenium (E2E)" style="rounded=1;whiteSpace=wrap;html=1;fillColor=#4895ef;strokeColor=#1d3557;fontColor=#ffffff;fontSize=11;fontStyle=1;gradientColor=#1d3557;gradientDirection=north;" vertex="1" parent="1">
          <mxGeometry x="50" y="620" width="200" height="100" as="geometry" />
        </mxCell>
        
        <!-- 模拟工具 -->
        <mxCell id="mocking-tools" value="模拟工具&#xa;&#xa;• Mockito (Java)&#xa;• Jest Mock (JS)&#xa;• MSW (API Mock)&#xa;• WireMock (API)&#xa;• TestContainers" style="rounded=1;whiteSpace=wrap;html=1;fillColor=#4895ef;strokeColor=#1d3557;fontColor=#ffffff;fontSize=11;fontStyle=1;gradientColor=#1d3557;gradientDirection=north;" vertex="1" parent="1">
          <mxGeometry x="270" y="620" width="200" height="100" as="geometry" />
        </mxCell>
        
        <!-- 测试流程 -->
        <mxCell id="test-process-title" value="测试流程 (Testing Process)" style="text;html=1;strokeColor=none;fillColor=none;align=center;verticalAlign=middle;whiteSpace=wrap;rounded=0;fontSize=18;fontStyle=1;fontColor=#43a047;" vertex="1" parent="1">
          <mxGeometry x="50" y="760" width="300" height="30" as="geometry" />
        </mxCell>
        
        <!-- 测试流程步骤 -->
        <mxCell id="test-planning" value="1. 测试计划&#xa;• 需求分析&#xa;• 测试策略制定&#xa;• 测试用例设计" style="rounded=1;whiteSpace=wrap;html=1;fillColor=#43a047;strokeColor=#2e7d32;fontColor=#ffffff;fontSize=11;fontStyle=1;gradientColor=#2e7d32;gradientDirection=north;" vertex="1" parent="1">
          <mxGeometry x="50" y="800" width="150" height="80" as="geometry" />
        </mxCell>
        
        <mxCell id="test-execution" value="2. 测试执行&#xa;• 单元测试&#xa;• 集成测试&#xa;• 系统测试" style="rounded=1;whiteSpace=wrap;html=1;fillColor=#43a047;strokeColor=#2e7d32;fontColor=#ffffff;fontSize=11;fontStyle=1;gradientColor=#2e7d32;gradientDirection=north;" vertex="1" parent="1">
          <mxGeometry x="220" y="800" width="150" height="80" as="geometry" />
        </mxCell>
        
        <mxCell id="test-reporting" value="3. 测试报告&#xa;• 测试结果分析&#xa;• 缺陷跟踪&#xa;• 质量评估" style="rounded=1;whiteSpace=wrap;html=1;fillColor=#43a047;strokeColor=#2e7d32;fontColor=#ffffff;fontSize=11;fontStyle=1;gradientColor=#2e7d32;gradientDirection=north;" vertex="1" parent="1">
          <mxGeometry x="390" y="800" width="150" height="80" as="geometry" />
        </mxCell>
        
        <!-- 连接线 -->
        <!-- 测试金字塔连接 -->
        <mxCell id="pyramid-connection" value="" style="endArrow=classic;html=1;rounded=0;strokeWidth=2;strokeColor=#e91e63;" edge="1" parent="1" source="e2e-tests" target="integration-tests">
          <mxGeometry width="50" height="50" relative="1" as="geometry">
            <mxPoint x="200" y="240" as="sourcePoint" />
            <mxPoint x="250" y="260" as="targetPoint" />
          </mxGeometry>
        </mxCell>
        
        <mxCell id="pyramid-connection2" value="" style="endArrow=classic;html=1;rounded=0;strokeWidth=2;strokeColor=#e91e63;" edge="1" parent="1" source="integration-tests" target="unit-tests">
          <mxGeometry width="50" height="50" relative="1" as="geometry">
            <mxPoint x="250" y="380" as="sourcePoint" />
            <mxPoint x="300" y="400" as="targetPoint" />
          </mxGeometry>
        </mxCell>
        
        <!-- 测试类型连接 -->
        <mxCell id="type-connection" value="" style="endArrow=classic;html=1;rounded=0;strokeWidth=2;strokeColor=#2196f3;dashed=1;" edge="1" parent="1" source="blackbox-tests" target="whitebox-tests">
          <mxGeometry width="50" height="50" relative="1" as="geometry">
            <mxPoint x="750" y="180" as="sourcePoint" />
            <mxPoint x="800" y="180" as="targetPoint" />
          </mxGeometry>
        </mxCell>
        
        <mxCell id="type-connection2" value="" style="endArrow=classic;html=1;rounded=0;strokeWidth=2;strokeColor=#2196f3;dashed=1;" edge="1" parent="1" source="whitebox-tests" target="graybox-tests">
          <mxGeometry width="50" height="50" relative="1" as="geometry">
            <mxPoint x="1100" y="180" as="sourcePoint" />
            <mxPoint x="1150" y="180" as="targetPoint" />
          </mxGeometry>
        </mxCell>
        
        <!-- 前端测试连接 -->
        <mxCell id="frontend-connection" value="" style="endArrow=classic;html=1;rounded=0;strokeWidth=2;strokeColor=#4361ee;" edge="1" parent="1" source="frontend-unit" target="frontend-integration">
          <mxGeometry width="50" height="50" relative="1" as="geometry">
            <mxPoint x="650" y="370" as="sourcePoint" />
            <mxPoint x="680" y="370" as="targetPoint" />
          </mxGeometry>
        </mxCell>
        
        <mxCell id="frontend-connection2" value="" style="endArrow=classic;html=1;rounded=0;strokeWidth=2;strokeColor=#4361ee;" edge="1" parent="1" source="frontend-integration" target="frontend-e2e">
          <mxGeometry width="50" height="50" relative="1" as="geometry">
            <mxPoint x="880" y="370" as="sourcePoint" />
            <mxPoint x="910" y="370" as="targetPoint" />
          </mxGeometry>
        </mxCell>
        
        <!-- 后端测试连接 -->
        <mxCell id="backend-connection" value="" style="endArrow=classic;html=1;rounded=0;strokeWidth=2;strokeColor=#f72585;" edge="1" parent="1" source="backend-unit" target="backend-integration">
          <mxGeometry width="50" height="50" relative="1" as="geometry">
            <mxPoint x="650" y="550" as="sourcePoint" />
            <mxPoint x="680" y="550" as="targetPoint" />
          </mxGeometry>
        </mxCell>
        
        <mxCell id="backend-connection2" value="" style="endArrow=classic;html=1;rounded=0;strokeWidth=2;strokeColor=#f72585;" edge="1" parent="1" source="backend-integration" target="backend-api">
          <mxGeometry width="50" height="50" relative="1" as="geometry">
            <mxPoint x="880" y="550" as="sourcePoint" />
            <mxPoint x="910" y="550" as="targetPoint" />
          </mxGeometry>
        </mxCell>
        
        <!-- 测试流程连接 -->
        <mxCell id="process-connection" value="" style="endArrow=classic;html=1;rounded=0;strokeWidth=2;strokeColor=#43a047;" edge="1" parent="1" source="test-planning" target="test-execution">
          <mxGeometry width="50" height="50" relative="1" as="geometry">
            <mxPoint x="200" y="840" as="sourcePoint" />
            <mxPoint x="220" y="840" as="targetPoint" />
          </mxGeometry>
        </mxCell>
        
        <mxCell id="process-connection2" value="" style="endArrow=classic;html=1;rounded=0;strokeWidth=2;strokeColor=#43a047;" edge="1" parent="1" source="test-execution" target="test-reporting">
          <mxGeometry width="50" height="50" relative="1" as="geometry">
            <mxPoint x="370" y="840" as="sourcePoint" />
            <mxPoint x="390" y="840" as="targetPoint" />
          </mxGeometry>
        </mxCell>
        
        <!-- 图例 -->
        <mxCell id="legend-bg" value="" style="rounded=1;whiteSpace=wrap;html=1;fillColor=#ffffff;strokeColor=#cccccc;strokeWidth=1;" vertex="1" parent="1">
          <mxGeometry x="1200" y="50" width="200" height="200" as="geometry" />
        </mxCell>
        
        <mxCell id="legend-title" value="图例" style="text;html=1;strokeColor=none;fillColor=none;align=center;verticalAlign=middle;whiteSpace=wrap;rounded=0;fontSize=14;fontStyle=1;fontColor=#333333;" vertex="1" parent="1">
          <mxGeometry x="1300" y="70" width="100" height="20" as="geometry" />
        </mxCell>
        
        <mxCell id="legend-e2e" value="" style="rounded=1;whiteSpace=wrap;html=1;fillColor=#ff5722;strokeColor=#d84315;" vertex="1" parent="1">
          <mxGeometry x="1220" y="95" width="15" height="15" as="geometry" />
        </mxCell>
        
        <mxCell id="legend-e2e-text" value="E2E测试" style="text;html=1;strokeColor=none;fillColor=none;align=left;verticalAlign=middle;whiteSpace=wrap;rounded=0;fontSize=12;fontColor=#333333;" vertex="1" parent="1">
          <mxGeometry x="1245" y="95" width="60" height="15" as="geometry" />
        </mxCell>
        
        <mxCell id="legend-integration" value="" style="rounded=1;whiteSpace=wrap;html=1;fillColor=#ff9800;strokeColor=#f57c00;" vertex="1" parent="1">
          <mxGeometry x="1220" y="115" width="15" height="15" as="geometry" />
        </mxCell>
        
        <mxCell id="legend-integration-text" value="集成测试" style="text;html=1;strokeColor=none;fillColor=none;align=left;verticalAlign=middle;whiteSpace=wrap;rounded=0;fontSize=12;fontColor=#333333;" vertex="1" parent="1">
          <mxGeometry x="1245" y="115" width="60" height="15" as="geometry" />
        </mxCell>
        
        <mxCell id="legend-unit" value="" style="rounded=1;whiteSpace=wrap;html=1;fillColor=#4caf50;strokeColor=#388e3c;" vertex="1" parent="1">
          <mxGeometry x="1220" y="135" width="15" height="15" as="geometry" />
        </mxCell>
        
        <mxCell id="legend-unit-text" value="单元测试" style="text;html=1;strokeColor=none;fillColor=none;align=left;verticalAlign=middle;whiteSpace=wrap;rounded=0;fontSize=12;fontColor=#333333;" vertex="1" parent="1">
          <mxGeometry x="1245" y="135" width="60" height="15" as="geometry" />
        </mxCell>
        
        <mxCell id="legend-frontend" value="" style="rounded=1;whiteSpace=wrap;html=1;fillColor=#4361ee;strokeColor=#3a0ca3;" vertex="1" parent="1">
          <mxGeometry x="1220" y="155" width="15" height="15" as="geometry" />
        </mxCell>
        
        <mxCell id="legend-frontend-text" value="前端测试" style="text;html=1;strokeColor=none;fillColor=none;align=left;verticalAlign=middle;whiteSpace=wrap;rounded=0;fontSize=12;fontColor=#333333;" vertex="1" parent="1">
          <mxGeometry x="1245" y="155" width="60" height="15" as="geometry" />
        </mxCell>
        
        <mxCell id="legend-backend" value="" style="rounded=1;whiteSpace=wrap;html=1;fillColor=#f72585;strokeColor=#b5179e;" vertex="1" parent="1">
          <mxGeometry x="1220" y="175" width="15" height="15" as="geometry" />
        </mxCell>
        
        <mxCell id="legend-backend-text" value="后端测试" style="text;html=1;strokeColor=none;fillColor=none;align=left;verticalAlign=middle;whiteSpace=wrap;rounded=0;fontSize=12;fontColor=#333333;" vertex="1" parent="1">
          <mxGeometry x="1245" y="175" width="60" height="15" as="geometry" />
        </mxCell>
        
        <mxCell id="legend-specialized" value="" style="rounded=1;whiteSpace=wrap;html=1;fillColor=#4cc9f0;strokeColor=#00b4d8;" vertex="1" parent="1">
          <mxGeometry x="1220" y="195" width="15" height="15" as="geometry" />
        </mxCell>
        
        <mxCell id="legend-specialized-text" value="专项测试" style="text;html=1;strokeColor=none;fillColor=none;align=left;verticalAlign=middle;whiteSpace=wrap;rounded=0;fontSize=12;fontColor=#333333;" vertex="1" parent="1">
          <mxGeometry x="1245" y="195" width="60" height="15" as="geometry" />
        </mxCell>
        
        <!-- 技术栈说明 -->
        <mxCell id="tech-stack" value="测试技术栈: JUnit 5 + Mockito + Jest + Cypress + Spring Boot Test | 测试策略: 金字塔模型 + 分层测试 + 持续集成" style="text;html=1;strokeColor=none;fillColor=none;align=center;verticalAlign=middle;whiteSpace=wrap;rounded=0;fontSize=12;fontColor=#666666;" vertex="1" parent="1">
          <mxGeometry x="300" y="980" width="800" height="20" as="geometry" />
        </mxCell>
        
      </root>
    </mxGraphModel>
  </diagram>
</mxfile> 